<?xml version="1.0" encoding="UTF-8"?>
<svg xmlns="http://www.w3.org/2000/svg" xmlns:xlink="http://www.w3.org/1999/xlink" viewBox="0 0 240 240" width="240px" height="240px">
<g id="surface609317">
<path style=" stroke:none;fill-rule:nonzero;fill:rgb(30.19608%,70.980394%,100%);fill-opacity:1;" d="M 109.53125 158.859375 L 122.535156 145.238281 L 135.535156 158.859375 L 135.535156 215 L 109.53125 215 Z M 109.53125 158.859375 "/>
<path style=" stroke:none;fill-rule:nonzero;fill:rgb(30.19608%,70.980394%,100%);fill-opacity:1;" d="M 88.683594 145.289062 L 107.210938 141.914062 L 109.726562 160.574219 L 76.726562 205.996094 L 55.691406 190.703125 Z M 88.683594 145.289062 "/>
<path style=" stroke:none;fill-rule:nonzero;fill:rgb(30.19608%,70.980394%,100%);fill-opacity:1;" d="M 79.808594 122.046875 L 96.773438 130.203125 L 87.84375 146.78125 L 34.449219 164.125 L 26.414062 139.394531 Z M 79.808594 122.046875 "/>
<path style=" stroke:none;fill-rule:nonzero;fill:rgb(30.19608%,70.980394%,100%);fill-opacity:1;" d="M 86.28125 98.035156 L 95.210938 114.609375 L 78.246094 122.769531 L 24.851562 105.421875 L 32.886719 80.683594 Z M 86.28125 98.035156 "/>
<path style=" stroke:none;fill-rule:nonzero;fill:rgb(30.19608%,70.980394%,100%);fill-opacity:1;" d="M 105.628906 82.410156 L 103.113281 101.070312 L 84.589844 97.695312 L 51.589844 52.273438 L 72.628906 36.988281 Z M 105.628906 82.410156 "/>
<path style=" stroke:none;fill-rule:nonzero;fill:rgb(30.19608%,70.980394%,100%);fill-opacity:1;" d="M 130.46875 81.140625 L 117.464844 94.761719 L 104.464844 81.140625 L 104.464844 25 L 130.46875 25 Z M 130.46875 81.140625 "/>
<path style=" stroke:none;fill-rule:nonzero;fill:rgb(30.19608%,70.980394%,100%);fill-opacity:1;" d="M 151.308594 94.714844 L 132.789062 98.089844 L 130.273438 79.429688 L 163.269531 34.011719 L 184.308594 49.296875 Z M 151.308594 94.714844 "/>
<path style=" stroke:none;fill-rule:nonzero;fill:rgb(30.19608%,70.980394%,100%);fill-opacity:1;" d="M 160.195312 117.949219 L 143.226562 109.789062 L 152.15625 93.214844 L 205.550781 75.871094 L 213.585938 100.601562 Z M 160.195312 117.949219 "/>
<path style=" stroke:none;fill-rule:nonzero;fill:rgb(30.19608%,70.980394%,100%);fill-opacity:1;" d="M 153.71875 141.964844 L 144.789062 125.390625 L 161.753906 117.234375 L 215.148438 134.578125 L 207.113281 159.316406 Z M 153.71875 141.964844 "/>
<path style=" stroke:none;fill-rule:nonzero;fill:rgb(30.19608%,70.980394%,100%);fill-opacity:1;" d="M 134.371094 157.589844 L 136.890625 138.929688 L 155.410156 142.304688 L 188.410156 187.726562 L 167.371094 203.011719 Z M 134.371094 157.589844 "/>
</g>
</svg>
